<svg height="20" viewBox="0 0 20 20" width="20" xmlns="http://www.w3.org/2000/svg"><path d="m223 601.742778c0 5.379722-4.395556 9.741944-9.817778 9.741944-1.721944 0-3.339722-.439722-4.746111-1.212222l-5.436111 1.7275 1.771944-5.226667c-.894166-1.468333-1.408333-3.190277-1.408333-5.030555 0-5.380834 4.395556-9.742778 9.818611-9.742778 5.422222 0 9.817778 4.361944 9.817778 9.742778zm-9.817778-8.191111c-4.552778 0-8.255 3.673889-8.255 8.191111 0 1.791389.583611 3.451666 1.572222 4.8025l-1.030833 3.041389 3.171667-1.007778c1.303055.855 2.864444 1.354167 4.541944 1.354167 4.550834 0 8.254167-3.674167 8.254167-8.190278 0-4.517222-3.703333-8.191111-8.254167-8.191111zm4.957778 10.435c-.060833-.099723-.221389-.159445-.461111-.278889-.240833-.119167-1.424722-.6975-1.645-.776667-.220278-.079444-.381945-.119444-.541389.119167-.160556.238889-.621944.776944-.762778.936389-.14.159722-.28.179166-.520833.059722-.241111-.119167-1.016945-.372222-1.935833-1.184722-.715-.633889-1.198056-1.415-1.339167-1.653889-.139722-.238611-.013889-.367778.105278-.486945.108611-.1075.241111-.278889.361389-.417777.120555-.14.160555-.24.240833-.399445.080278-.159444.040278-.298333-.020556-.417778-.059722-.119166-.541389-1.294444-.742222-1.773055-.199444-.477222-.400278-.398056-.541389-.398056-.14 0-.300555-.019722-.461111-.019722-.160555 0-.421111.059722-.641389.298611-.220278.238611-.841944.816945-.841944 1.991111 0 1.175.861666 2.311111.981944 2.469445.120556.159722 1.664445 2.649722 4.111389 3.605833 2.446945.955833 2.446945.636944 2.888333.596667.440556-.038889 1.423612-.577223 1.624445-1.135.200833-.557778.200833-1.036111.141111-1.135z" fill="#fff" fill-rule="evenodd" transform="translate(-203 -592)"/></svg>