<svg height="102" viewBox="0 0 210 102" width="210" xmlns="http://www.w3.org/2000/svg"><path d="m50.963681 95.3872252c24.4576042 0 44.3530222-19.911894 44.3530222-44.3879326 0-24.4774534-19.895418-44.38934739-44.3530222-44.38934739-24.4590142 0-44.35725181 19.91189399-44.35725181 44.38934739 0 24.4760386 19.89823761 44.3879326 44.35725181 44.3879326zm0-95.3872252c28.1442906 0 50.959451 22.8320411 50.959451 50.9992926 0 28.1630071-22.8151604 51.0007074-50.959451 51.0007074-28.1485202 0-50.963681-22.8377003-50.963681-51.0007074 0-28.1672515 22.8151608-50.9992926 50.963681-50.9992926zm.0014098 10.5641695c19.2187031 0 35.3329766 13.5000208 39.4045446 31.5203273h-27.632525l13.836-13.8466467-52.4383555-.1513836 18.0358618 18.0500173h10.7921928l-9.803907 9.8116374h-32.2891694c-.2001949-1.6227755-.3143905-3.273847-.3143905-4.9489701 0-22.2972467 18.1260905-40.4349816 40.4097482-40.4349816zm7.0381169 49.4350898 9.8349232 9.842763-32.8122137-.0254664 9.8095464-9.8172966zm-24.0689162-27.8346321 32.8953932.0947916-9.8194151 9.8257854h-13.1649245zm14.9490551 23.7836355 9.8053169-9.8130522h32.379398c.1917359 1.5958943.3017021 3.2158402.3017021 4.8640821 0 22.2958319-18.1289102 40.4363964-40.4069285 40.4363964-19.1890969 0-35.2836329-13.4604064-39.3848071-31.4368541h27.5310178l-13.8472786 13.8565504 52.3537661.0452736-17.9371743-17.9523962zm88.1828594-10.3512421-15.330412 18.7192177h15.701195v5.0720577h-22.334411v-4.8626673l15.329002-18.6824329h-14.835564v-5.0720577h21.47019zm16.648032 14.965895v-12.4092101h5.436277v22.1020043c0 5.7313545-3.750129 9.5258479-9.437353 9.5258479-4.655235 0-8.487133-3.0517235-9.2287-7.4220404h5.64493c.329899 1.5633539 1.732672 2.3499827 3.58377 2.3499827 2.970496 0 4.001076-2.1038075 4.001076-4.0845274v-2.474485c-1.278709 1.0724183-2.928201 1.731715-4.863888 1.731715-5.192377 0-8.654902-3.7506345-8.654902-9.319287v-12.4092101h5.441916v12.4092101c0 1.1983355.411668 4.1637562 3.953143 4.1637562 2.433354 0 4.123731-1.7713295 4.123731-4.1637562zm21.136203 4.2499175c3.008562 0 5.437686-2.6004023 5.437686-5.9789445 0-3.464845-2.429124-6.1034468-5.437686-6.1034468-3.009971 0-5.437686 2.722075-5.437686 6.1034468 0 3.2964838 2.427715 5.9789445 5.437686 5.9789445zm.783862-17.1162494c5.56175 0 10.09433 4.7862681 10.09433 11.0948609 0 6.2675637-4.53258 11.0538318-10.09433 11.0538318-2.556009 0-4.821594-.9946044-6.469677-2.7249047v2.2679243h-5.233262v-30.6785214h5.481391v11.4641237c1.604378-1.5675983 3.788194-2.4773146 6.221548-2.4773146zm23.484685 17.1162494c3.011382 0 5.439096-2.6824607 5.439096-5.9789445 0-3.3813718-2.427714-6.1034468-5.439096-6.1034468-3.008561 0-5.437686 2.6386018-5.437686 6.1034468 0 3.3785422 2.429125 5.9789445 5.437686 5.9789445zm5.687225-16.6592691h5.193787v21.234732h-5.193787v-2.2679243c-1.649492 1.7303003-3.913668 2.7249047-6.509151 2.7249047-5.523686 0-10.09715-4.7862681-10.09715-11.0538318 0-6.3085928 4.573464-11.0948609 10.09715-11.0948609 2.595483 0 4.859659.9931895 6.509151 2.7234898z" fill="#4585c6" fill-rule="evenodd"/></svg>